name Walk9.mot
datacolumns 19
datarows 12
range 2.30500000 2.36000000
endheader

                time	   L_ground_force_vx	   L_ground_force_vy	   L_ground_force_vz	   L_ground_force_px	   L_ground_force_py	   L_ground_force_pz	   R_ground_force_vx	   R_ground_force_vy	   R_ground_force_vz	   R_ground_force_px	   R_ground_force_py	   R_ground_force_pz	   L_ground_torque_x	   L_ground_torque_y	   L_ground_torque_z	   R_ground_torque_x	   R_ground_torque_y	   R_ground_torque_z	
          2.30500000	          0.00000010	          0.00000032	         -0.00000002	         -0.00000000	          0.00000000	         -0.00000000	         32.13490814	        137.68917465	          6.36278226	          0.19290845	          0.00000000	          0.04054577	          0.00000000	         -0.00000000	          0.00000000	          0.00000000	         -7.66354416	          0.00000000	
          2.31000000	          0.00000006	          0.00000019	         -0.00000002	         -0.00000000	          0.00000000	         -0.00000000	         24.44599751	        102.53586593	          6.11341326	          0.17744411	          0.00000000	          0.03687620	          0.00000000	         -0.00000000	          0.00000000	          0.00000000	         -6.08810591	          0.00000000	
          2.31500000	          0.00000003	          0.00000009	         -0.00000001	         -0.00000000	          0.00000000	         -0.00000000	         17.63605950	         72.45546619	          5.50062387	          0.15818791	          0.00000000	          0.03258256	          0.00000000	         -0.00000000	          0.00000000	          0.00000000	         -4.62745763	          0.00000000	
          2.32000000	          0.00000000	          0.00000002	         -0.00000001	         -0.00000000	          0.00000000	         -0.00000000	         11.88051841	         47.64913408	          4.67703714	          0.13559937	          0.00000000	          0.02774288	          0.00000000	          0.00000000	          0.00000000	          0.00000000	         -3.33421261	          0.00000000	
          2.32500000	         -0.00000001	         -0.00000003	         -0.00000001	         -0.00000000	          0.00000000	         -0.00000000	          7.24872042	         28.01388241	          3.77847978	          0.11094516	          0.00000000	          0.02256964	          0.00000000	          0.00000000	          0.00000000	          0.00000000	         -2.24254209	          0.00000000	
          2.33000000	         -0.00000002	         -0.00000006	         -0.00000000	         -0.00000000	          0.00000000	         -0.00000000	          3.70506224	         13.20787390	          2.90337575	          0.08638214	          0.00000000	          0.01747205	          0.00000000	          0.00000000	          0.00000000	          0.00000000	         -1.36514914	          0.00000000	
          2.33500000	         -0.00000002	         -0.00000007	         -0.00000000	         -0.00000000	          0.00000000	         -0.00000000	          1.13955727	          2.66848434	          2.11256657	          0.06379858	          0.00000000	          0.01282123	          0.00000000	          0.00000000	          0.00000000	          0.00000000	         -0.69452725	          0.00000000	
          2.34000000	         -0.00000002	         -0.00000007	         -0.00000000	         -0.00000000	          0.00000000	         -0.00000000	         -0.59577657	         -4.30126686	          1.43835749	          0.04427047	          0.00000000	          0.00882475	          0.00000000	          0.00000000	          0.00000000	          0.00000000	         -0.20954171	          0.00000000	
          2.34500000	         -0.00000002	         -0.00000007	          0.00000000	          0.00000000	          0.00000000	          0.00000000	         -1.66149382	         -8.43065508	          0.89224358	          0.02824622	          0.00000000	          0.00556395	          0.00000000	          0.00000000	          0.00000000	          0.00000000	          0.11804234	          0.00000000	
          2.35000000	         -0.00000002	         -0.00000006	          0.00000000	          0.00000000	          0.00000000	          0.00000000	         -2.21351358	        -10.41198888	          0.47146563	          0.01573624	          0.00000000	          0.00303283	          0.00000000	          0.00000000	          0.00000000	          0.00000000	          0.31877992	          0.00000000	
          2.35500000	         -0.00000002	         -0.00000005	          0.00000000	          0.00000000	          0.00000000	          0.00000000	         -2.39245099	        -10.85911744	          0.16434165	          0.00646929	          0.00000000	          0.00116980	          0.00000000	          0.00000000	          0.00000000	          0.00000000	          0.42229740	          0.00000000	
          2.36000000	         -0.00000001	         -0.00000004	          0.00000000	          0.00000000	          0.00000000	          0.00000000	         -2.31798615	        -10.28702743	         -0.04560844	          0.00001493	          0.00000000	         -0.00011743	          0.00000000	          0.00000000	          0.00000000	          0.00000000	          0.45528254	          0.00000000	
